HIERARCHY
ROOT Hips
{
  OFFSET -0.0544378 18.5206 -1.30424
  CHANNELS 6 Xposition Yposition Zposition Zrotation Xrotation Yrotation
  JOINT LHipJoint
  {
    OFFSET 0 0 0
    CHANNELS 3 Zrotation Xrotation Yrotation
    JOINT LeftUpLeg
    {
      OFFSET 1.8 -1.4 0.085
      CHANNELS 3 Zrotation Xrotation Yrotation
      JOINT LeftLeg
      {
        OFFSET 2.215 -6 0
        CHANNELS 3 Zrotation Xrotation Yrotation
        JOINT LeftFoot
        {
          OFFSET 2.5 -6.9 0
          CHANNELS 3 Zrotation Xrotation Yrotation
          JOINT LeftToeBase
          {
            OFFSET 0.2 -0.5 1.95
            CHANNELS 3 Zrotation Xrotation Yrotation
            End Site
            {
              OFFSET 0 0 1
            }
          }
        }
      }
    }
  }
  JOINT RHipJoint
  {
    OFFSET 0 0 0
    CHANNELS 3 Zrotation Xrotation Yrotation
    JOINT RightUpLeg
    {
      OFFSET -1.8 -1.4 0.085
      CHANNELS 3 Zrotation Xrotation Yrotation
      JOINT RightLeg
      {
        OFFSET -2.215 -6 0
        CHANNELS 3 Zrotation Xrotation Yrotation
        JOINT RightFoot
        {
          OFFSET -2.5 -6.9 0
          CHANNELS 3 Zrotation Xrotation Yrotation
          JOINT RightToeBase
          {
            OFFSET -0.2 -0.5 1.95
            CHANNELS 3 Zrotation Xrotation Yrotation
            End Site
            {
              OFFSET 0 0 1
            }
          }
        }
      }
    }
  }
  JOINT LowerBack
  {
    OFFSET 0 0 0
    CHANNELS 3 Zrotation Xrotation Yrotation
    JOINT Spine
    {
      OFFSET -0.087 1.94 -0.2889
      CHANNELS 3 Zrotation Xrotation Yrotation
      JOINT Spine1
      {
        OFFSET 0 1.95 0.06
        CHANNELS 3 Zrotation Xrotation Yrotation
        JOINT Neck
        {
          OFFSET 0 0 0
          CHANNELS 3 Zrotation Xrotation Yrotation
          JOINT Neck1
          {
            OFFSET 0 1.6 0.34
            CHANNELS 3 Zrotation Xrotation Yrotation
            JOINT Head
            {
              OFFSET 0 1.667 -0.24
              CHANNELS 3 Zrotation Xrotation Yrotation
              End Site
              {
                OFFSET 0 1.686 -0.12
              }
            }
          }
        }
        JOINT LeftShoulder
        {
          OFFSET 0 0 0
          CHANNELS 3 Zrotation Xrotation Yrotation
          JOINT LeftArm
          {
            OFFSET 2.7 1.55 -0.73
            CHANNELS 3 Zrotation Xrotation Yrotation
            JOINT LeftForeArm
            {
              OFFSET 5.45 0 0
              CHANNELS 3 Zrotation Xrotation Yrotation
              JOINT LeftHand
              {
                OFFSET 3.45 0 0
                CHANNELS 3 Zrotation Xrotation Yrotation
                JOINT LeftFingerBase
                {
                  OFFSET 0 0 0
                  CHANNELS 3 Zrotation Xrotation Yrotation
                  JOINT LeftHandIndex1
                  {
                    OFFSET 0.75 0 0
                    CHANNELS 3 Zrotation Xrotation Yrotation
                    End Site
                    {
                      OFFSET 0.6 0 0
                    }
                  }
                }
                JOINT LThumb
                {
                  OFFSET 0 0 0
                  CHANNELS 3 Zrotation Xrotation Yrotation
                  End Site
                  {
                    OFFSET 0.59 0 0.59
                  }
                }
              }
            }
          }
        }
        JOINT RightShoulder
        {
          OFFSET 0 0 0
          CHANNELS 3 Zrotation Xrotation Yrotation
          JOINT RightArm
          {
            OFFSET -2.7 1.55 -0.73
            CHANNELS 3 Zrotation Xrotation Yrotation
            JOINT RightForeArm
            {
              OFFSET -5.45 0 0
              CHANNELS 3 Zrotation Xrotation Yrotation
              JOINT RightHand
              {
                OFFSET -3.45 0 0
                CHANNELS 3 Zrotation Xrotation Yrotation
                JOINT RightFingerBase
                {
                  OFFSET 0 0 0
                  CHANNELS 3 Zrotation Xrotation Yrotation
                  JOINT RightHandIndex1
                  {
                    OFFSET -0.75 0 0
                    CHANNELS 3 Zrotation Xrotation Yrotation
                    End Site
                    {
                      OFFSET -0.6 0 0
                    }
                  }
                }
                JOINT RThumb
                {
                  OFFSET 0 0 0
                  CHANNELS 3 Zrotation Xrotation Yrotation
                  End Site
                  {
                    OFFSET -0.59 0 0.59
                  }
                }
              }
            }
          }
        }
      }
    }
  }
}
MOTION
Frames:	4
Frame Time:	0.00833333
-0.0543873 18.5207 -1.30425 0.00118752 -0.000198438 0.000775522 7.5316e-020 2.42657e-020 -9.70628e-020 -17.6276 0.913401 1.7266 -0.113772 1.40678 -0.852452 -0.55605 -2.3079 -0.897131 -2.33105e-015 5.22643e-014 -4.46605e-015 7.5316e-020 2.42657e-020 -9.70628e-020 18.0504 2.55127 2.16681 -0.336864 -0.277581 -2.73517 0.767957 -2.25465 0.583685 1.68541e-006 8.99074e-015 -1.66647e-015 7.5316e-020 2.42657e-020 -9.70628e-020 0.00972175 0.000744112 0.0010068 -0.00198123 -0.00160206 0.00819082 0.000494391 -16 0.00179363 0.00609319 21 -3.99327e-010 0.00503639 11.0046 -0.00312061 0.339567 0.0108901 3.47181 -42.3331 -55.5182 -43.9994 21.311 58.5998 0.0135965 -0.699707 1.76576 -10.3249 -5.91058e-009 4.65278e-007 8.27537e-007 -1.39149e-015 7.95139e-016 -3.18055e-015 9.93923e-016 -7.95139e-016 -0 -0.330331 0.00819185 -3.47999 34.4487 -48.0683 36.1929 -12.8016 53.2582 0.00129141 -1.27963 -1.79807 7.96749 0 0 -3.18055e-015 9.93923e-016 -1.59028e-015 -3.18055e-015 -7.95139e-016 0 -3.18055e-015 
-0.0541725 18.5207 -1.30428 0.00118757 -0.000739884 0.00399283 -4.22079e-019 0 -1.55301e-018 -17.6325 0.917163 1.7266 -0.114419 1.39278 -0.834416 -0.55834 -2.29859 -0.892447 2.18966e-015 5.22648e-014 -4.47266e-015 -4.22079e-019 0 -1.55301e-018 18.0458 2.56035 2.158 -0.329485 -0.294221 -2.72272 0.75703 -2.25173 0.583684 1.68541e-006 8.99112e-015 -1.66637e-015 -4.22079e-019 0 -1.55301e-018 0.0097217 0.00342336 0.0010068 -0.010906 -0.00774447 0.00819082 0.000494391 -16 0.00179363 0.00609319 21 -3.99327e-010 0.0265833 11.0226 -0.0165548 0.339567 0.0108901 3.47181 -42.3125 -55.5217 -43.9917 21.3024 58.5852 0.0135909 -0.69457 1.76666 -10.332 -5.91058e-009 4.65278e-007 8.27537e-007 5.96354e-016 -7.95139e-016 -1.59028e-015 -3.97569e-016 -7.95139e-016 -1.59028e-015 -0.330331 0.00819185 -3.47999 34.4526 -48.0754 36.1961 -12.809 53.2469 0.00129107 -1.28032 -1.79801 7.98037 5.96354e-016 7.95139e-016 -0 8.82781e-032 -1.59028e-015 3.18055e-015 -1.98785e-016 7.95139e-016 -0 
-0.0539557 18.5208 -1.30432 0.00118767 -0.00124096 0.00722858 -3.1299e-019 3.88251e-019 1.55301e-018 -17.6374 0.921021 1.7266 -0.115071 1.37839 -0.816035 -0.560784 -2.28907 -0.887657 -5.76329e-016 5.22664e-014 -4.46023e-015 -3.1299e-019 3.88251e-019 1.55301e-018 18.0411 2.56939 2.14908 -0.321919 -0.31091 -2.71004 0.745898 -2.24873 0.583682 1.68541e-006 8.99501e-015 -1.66482e-015 -3.1299e-019 3.88251e-019 1.55301e-018 0.00972165 0.00605505 0.0010068 -0.0199907 -0.0138444 0.00819082 0.000494391 -16 0.00179363 0.00609319 21 -3.99327e-010 0.0483623 11.0406 -0.0301428 0.339567 0.0108901 3.47181 -42.2918 -55.5252 -43.984 21.2936 58.5702 0.013585 -0.689238 1.7675 -10.339 -5.91058e-009 4.65278e-007 8.27537e-007 7.95139e-016 0 -1.59028e-015 -1.98785e-016 -7.95139e-016 -3.18055e-015 -0.330331 0.00819185 -3.47999 34.457 -48.0825 36.1996 -12.8166 53.2356 0.00129073 -1.28082 -1.79796 7.9935 3.97569e-016 -1.59028e-015 -0 1.19271e-015 -1.59028e-015 3.18055e-015 -3.97569e-016 -7.95139e-016 -0 
-0.053761 18.5208 -1.30436 0.00118791 -0.0021861 0.0102615 -6.29866e-020 7.76503e-019 -0 -17.6412 0.923817 1.72661 -0.115564 1.36822 -0.801438 -0.561548 -2.28191 -0.884035 -5.80325e-016 5.22633e-014 -4.47266e-015 -6.29866e-020 7.76503e-019 -0 18.0379 2.5788 2.14141 -0.31633 -0.327061 -2.69983 0.737022 -2.2466 0.583682 1.68541e-006 8.98569e-015 -1.66482e-015 -6.29866e-020 7.76503e-019 -0 0.0097216 0.00920982 0.0010068 -0.0273158 -0.0204121 0.00819083 0.000494391 -16 0.00179363 0.00609319 21 -3.99327e-010 0.0676917 11.0592 -0.0420589 0.339567 0.0108901 3.47181 -42.2734 -55.5281 -43.9774 21.2868 58.5599 0.013581 -0.686061 1.76901 -10.3472 -5.91058e-009 4.65278e-007 8.27537e-007 -1.59028e-015 2.38542e-015 -0 7.95139e-016 0 1.59028e-015 -0.330331 0.00819185 -3.47999 34.4571 -48.0891 36.1995 -12.8212 53.2238 0.00129038 -1.28327 -1.79791 8.00394 1.59028e-015 -1.59028e-015 3.18055e-015 1.98785e-015 -7.95139e-016 6.36111e-015 7.95139e-016 -7.95139e-016 3.18055e-015 
